<mxfile host="app.diagrams.net" modified="2024-02-20T11:58:27.861Z" agent="Mozilla/5.0 (X11; Linux x86_64) AppleWebKit/537.36 (KHTML, like Gecko) Chrome/121.0.0.0 Safari/537.36" version="23.1.4" etag="Fp7t-Z0ZUJzzRmowg9xV" type="github">
  <diagram name="Page-1" id="d6eUmDvcShwaC1UaEgvf">
    <mxGraphModel>
      <root>
        <mxCell id="0" />
        <mxCell id="1" parent="0" />
      </root>
    </mxGraphModel>
  </diagram>
</mxfile>
